<?xml version="1.0" encoding="UTF-8"?>
<svg version="1.1" xmlns="http://www.w3.org/2000/svg" width="300" height="300">
<path d="M0 0 C7.79772392 7.42921145 12.42279231 15.68121964 13.3840332 26.56518555 C13.45753639 30.2912318 13.41750943 33.99348663 13.31640625 37.71875 C13.29835938 39.00007813 13.2803125 40.28140625 13.26171875 41.6015625 C13.21510366 44.72477336 13.14968763 47.84633874 13.06640625 50.96875 C14.14019531 50.92234375 15.21398437 50.8759375 16.3203125 50.828125 C30.64169268 50.38788077 30.64169268 50.38788077 36.06640625 54.96875 C40.28741399 59.13271709 42.8353508 63.1997101 43.33383179 69.17366028 C43.34145538 70.38197006 43.34907898 71.59027985 43.35693359 72.83520508 C43.36365082 73.50583481 43.37036804 74.17646454 43.37728882 74.86741638 C43.39621515 77.07444768 43.40019042 79.28117394 43.40234375 81.48828125 C43.40877608 83.03138857 43.41550477 84.57449469 43.42251587 86.11759949 C43.43447569 89.34966863 43.4381981 92.581631 43.43701172 95.8137207 C43.43680875 99.93948506 43.46409273 104.06455886 43.49855614 108.1901598 C43.52088137 111.37736608 43.52484753 114.56440775 43.52379227 117.75168419 C43.52614047 119.27182072 43.53491973 120.79196232 43.550457 122.31202126 C43.63552415 131.49504145 43.61787842 138.81041487 37.25 146.02734375 C36.67378906 146.48238281 36.09757813 146.93742188 35.50390625 147.40625 C34.92511719 147.87933594 34.34632813 148.35242188 33.75 148.83984375 C30.70447647 150.88196973 28.02437009 151.09849774 24.46955872 151.12265015 C23.52619659 151.13125061 22.58283447 151.13985107 21.61088562 151.14871216 C20.57760635 151.15297211 19.54432709 151.15723206 18.47973633 151.16162109 C17.38999512 151.16979858 16.30025391 151.17797607 15.17749023 151.18640137 C11.56364492 151.21125559 7.94983891 151.22777211 4.3359375 151.2421875 C2.48502282 151.25017302 2.48502282 151.25017302 0.59671593 151.25831985 C-5.2616295 151.28229541 -11.11995874 151.30153603 -16.97833937 151.3143419 C-23.72840315 151.32939148 -30.47798218 151.36445842 -37.22786063 151.41634309 C-43.08352052 151.45981042 -48.93901848 151.47569722 -54.7948246 151.48207474 C-57.280691 151.48878878 -59.76654972 151.50401464 -62.2523098 151.52796555 C-65.73526138 151.55960819 -69.21689339 151.55965427 -72.69995117 151.55224609 C-74.23468834 151.5768541 -74.23468834 151.5768541 -75.8004303 151.60195923 C-82.38312413 151.54476838 -86.89408126 150.33058399 -91.93359375 145.96875 C-96.92798167 140.26556598 -98.05075806 135.96931128 -98.09472656 128.38354492 C-98.09969147 127.73096207 -98.10465637 127.07837921 -98.10977173 126.40602112 C-98.12433913 124.2537428 -98.13118648 122.10153821 -98.13671875 119.94921875 C-98.14247495 118.44712829 -98.14823262 116.94503784 -98.1539917 115.44294739 C-98.16448647 112.29488789 -98.170339 109.14685382 -98.17382812 105.9987793 C-98.1793077 101.97727699 -98.20333043 97.95611413 -98.23180008 93.93471813 C-98.25048213 90.83163999 -98.25563502 87.72864269 -98.257164 84.62551308 C-98.26017884 83.14363056 -98.26816768 81.66174906 -98.28134918 80.1799221 C-98.29852617 78.10040298 -98.29650173 76.02170118 -98.29003906 73.94213867 C-98.29368469 72.76173508 -98.29733032 71.58133148 -98.30108643 70.36515808 C-97.57639181 63.66745006 -94.58550867 58.72884899 -89.93359375 53.96875 C-84.99907756 50.87101089 -81.18501961 50.58284981 -75.55859375 50.78125 C-74.82253906 50.79478516 -74.08648437 50.80832031 -73.328125 50.82226562 C-71.52962632 50.85730131 -69.73150953 50.91109712 -67.93359375 50.96875 C-67.95454102 50.24921143 -67.97548828 49.52967285 -67.99707031 48.78833008 C-68.8425272 15.36335238 -68.8425272 15.36335238 -56.93359375 1.96875 C-41.48791827 -13.21414461 -16.50193986 -13.93365941 0 0 Z M-44.93359375 12.96875 C-49.93235992 18.66178924 -52.20781417 24.36936945 -52.12890625 32.0234375 C-52.12391113 33.02358887 -52.11891602 34.02374023 -52.11376953 35.05419922 C-52.09556152 36.30475098 -52.07735352 37.55530273 -52.05859375 38.84375 C-52.01734375 42.845 -51.97609375 46.84625 -51.93359375 50.96875 C-35.76359375 50.96875 -19.59359375 50.96875 -2.93359375 50.96875 C-2.83046875 46.885 -2.72734375 42.80125 -2.62109375 38.59375 C-2.57557373 37.32740723 -2.53005371 36.06106445 -2.4831543 34.75634766 C-2.37990465 26.23392166 -3.91037181 19.61537187 -9.58325195 13.06347656 C-14.37363663 8.29058337 -20.79194002 6.21200014 -27.4609375 5.8203125 C-33.88726099 6.20609495 -39.99216958 8.92576659 -44.93359375 12.96875 Z M-81.93359375 68.96875 C-82.69333913 71.8173109 -82.69333913 71.8173109 -82.58056641 75.13671875 C-82.59632721 76.40813721 -82.61208801 77.67955566 -82.62832642 78.98950195 C-82.61937689 80.37842676 -82.60912197 81.76734368 -82.59765625 83.15625 C-82.6010244 84.57967544 -82.60587702 86.00309808 -82.6121521 87.42651367 C-82.61952372 90.40929555 -82.6088103 93.39132863 -82.58544922 96.37402344 C-82.55695924 100.19798883 -82.57336196 104.02019994 -82.60331154 107.84410095 C-82.62137792 110.78329697 -82.61562998 113.72207686 -82.60267258 116.6612854 C-82.59933663 118.07109789 -82.60343241 119.48094815 -82.61507034 120.89071655 C-82.62776411 122.8607308 -82.6049858 124.83087746 -82.58056641 126.80078125 C-82.57658844 127.92202393 -82.57261047 129.0432666 -82.56851196 130.19848633 C-82.17502731 133.07658301 -82.17502731 133.07658301 -79.99839783 134.82998657 C-75.69876413 136.42756524 -71.8029599 136.38729131 -67.24975586 136.35693359 C-66.28009384 136.36219055 -65.31043182 136.36744751 -64.31138611 136.37286377 C-61.111072 136.38605136 -57.91125653 136.37733057 -54.7109375 136.3671875 C-52.48564051 136.36920842 -50.26034416 136.37212001 -48.03504944 136.37588501 C-43.37380664 136.38030655 -38.71273641 136.37388201 -34.05151367 136.35986328 C-28.07360335 136.34276172 -22.09609681 136.35262003 -16.11820126 136.37058067 C-11.52430674 136.38141451 -6.93050818 136.37797414 -2.33661079 136.3701973 C-0.1321667 136.36819471 2.07228609 136.37065661 4.27672005 136.37763596 C7.35536959 136.38524478 10.43336233 136.37365424 13.51196289 136.35693359 C14.42480042 136.36300629 15.33763794 136.36907898 16.27813721 136.37533569 C19.77975251 136.34005853 22.40880766 136.26072132 25.63121033 134.82998657 C27.7091942 132.13514922 27.57438372 130.1833728 27.58398438 126.80078125 C27.59659302 125.52936279 27.60920166 124.25794434 27.62219238 122.94799805 C27.61503278 121.5590764 27.60682885 120.17015981 27.59765625 118.78125 C27.60035077 117.35782608 27.60423286 115.93440395 27.60925293 114.51098633 C27.61515002 111.52830474 27.60657906 108.54610242 27.58789062 105.56347656 C27.56509994 101.73972935 27.57822204 97.91710505 27.60218048 94.09339905 C27.61663335 91.15425146 27.61203505 88.2153702 27.60166931 85.2762146 C27.59900056 83.86640287 27.60227708 82.45656696 27.61158752 81.04678345 C27.62174255 79.07676657 27.60352031 77.10666494 27.58398438 75.13671875 C27.580802 74.01547607 27.57761963 72.8942334 27.57434082 71.73901367 C27.28239982 68.95518132 27.28239982 68.95518132 25.63121033 67.10751343 C21.64720952 65.33863195 17.82400858 65.55188033 13.51196289 65.58056641 C12.54405319 65.57530945 11.57614349 65.57005249 10.5789032 65.56463623 C7.37795901 65.55142791 4.17751179 65.56017814 0.9765625 65.5703125 C-1.2477681 65.56829184 -3.47209806 65.56538048 -5.69642639 65.56161499 C-10.3594493 65.55719036 -15.02229985 65.56362668 -19.68530273 65.57763672 C-25.66202249 65.59471858 -31.63833781 65.5848944 -37.61504269 65.56691933 C-42.20897974 65.55607686 -46.80282099 65.55953017 -51.39676094 65.5673027 C-53.60037852 65.56930394 -55.80400481 65.56684814 -58.00761223 65.55986404 C-61.08856097 65.55224326 -64.1688558 65.56386351 -67.24975586 65.58056641 C-68.6159758 65.57145737 -68.6159758 65.57145737 -70.00979614 65.56216431 C-76.53172332 65.59179919 -76.53172332 65.59179919 -81.93359375 68.96875 Z " fill="#000000" transform="translate(184.93359375,55.03125)"/>
<path d="M0 0 C3.96439498 3.94663541 3.44773275 8.04757134 3.5078125 13.34960938 C3.50523437 14.53361328 3.50265625 15.71761719 3.5 16.9375 C3.52835938 18.11763672 3.55671875 19.29777344 3.5859375 20.51367188 C3.60780008 30.17146771 3.60780008 30.17146771 0.7265625 33.30859375 C-1.99262139 34.99542272 -3.02314937 35.62372892 -6.125 35.125 C-6.78757813 35.04507813 -7.45015625 34.96515625 -8.1328125 34.8828125 C-11.14899774 33.45675002 -11.73250397 32.11077531 -13 29 C-13.43451392 25.18081153 -13.41833506 21.40246775 -13.375 17.5625 C-13.38660156 16.53833984 -13.39820313 15.51417969 -13.41015625 14.45898438 C-13.38885466 8.97382391 -13.294839 4.63288394 -10 0 C-6.20519658 -1.26493447 -3.87641726 -0.89988258 0 0 Z " fill="#000000" transform="translate(162,139)"/>
<path d="M0 0 C0.97652527 0.00916946 1.95305054 0.01833893 2.95916748 0.02778625 C6.162811 0.06264816 9.36517885 0.126334 12.56835938 0.19042969 C14.79892698 0.2203509 17.02951954 0.24846178 19.26013184 0.27484131 C25.1130046 0.34890084 30.96521514 0.44746428 36.81762695 0.5512085 C42.79683178 0.65283833 48.77633723 0.7311887 54.75585938 0.81152344 C66.47501931 0.97238918 78.19361149 1.1591545 89.91210938 1.36230469 C90.40710938 2.35230469 90.40710938 2.35230469 90.91210938 3.36230469 C89.00863739 3.35564285 89.00863739 3.35564285 87.06671143 3.34884644 C75.11845813 3.30833527 63.17021873 3.27833706 51.22191238 3.25868034 C45.0789021 3.24823499 38.93594717 3.23406199 32.79296875 3.21142578 C26.8667013 3.18972433 20.94048716 3.17774172 15.01418304 3.1725502 C12.75111807 3.1688496 10.48805607 3.16162344 8.22501373 3.15084457 C5.0597753 3.13636565 1.89475831 3.13432525 -1.27050781 3.13525391 C-2.67959915 3.12446808 -2.67959915 3.12446808 -4.11715698 3.11346436 C-4.98089935 3.11621368 -5.84464172 3.11896301 -6.73455811 3.12179565 C-7.48305401 3.11995207 -8.23154991 3.11810848 -9.00272751 3.11620903 C-11.51511395 3.29316937 -11.51511395 3.29316937 -15.08789062 5.36230469 C-15.08789062 26.81230469 -15.08789062 48.26230469 -15.08789062 70.36230469 C-15.74789062 70.36230469 -16.40789062 70.36230469 -17.08789062 70.36230469 C-18.13433063 66.9317256 -18.20868581 63.79353596 -18.20141602 60.21679688 C-18.20134048 58.97581238 -18.20126495 57.73482788 -18.20118713 56.45623779 C-18.19608094 55.10721801 -18.19086495 53.75819865 -18.18554688 52.40917969 C-18.18368087 51.02484183 -18.18225783 49.64050331 -18.18125916 48.25616455 C-18.17744835 44.61969161 -18.16763038 40.98325886 -18.15655518 37.34680176 C-18.14631013 33.63322493 -18.14175491 29.91964159 -18.13671875 26.20605469 C-18.12600678 18.9247864 -18.10894766 11.64355118 -18.08789062 4.36230469 C-11.77372703 0.65691111 -7.25257884 -0.18990935 0 0 Z " fill="#000000" transform="translate(119.087890625,118.6376953125)"/>
<path d="M0 0 C0.66 0 1.32 0 2 0 C1.68609108 2.90365755 1.32634412 4.60838706 -0.5625 6.875 C-4.27209537 8.58712094 -7.0200536 7.72965684 -11 7 C-11.33 5.68 -11.66 4.36 -12 3 C-11.01 3.33 -10.02 3.66 -9 4 C-9 4.66 -9 5.32 -9 6 C-5.535 5.505 -5.535 5.505 -2 5 C-1.34 3.35 -0.68 1.7 0 0 Z " fill="#000000" transform="translate(163,166)"/>
<path d="M0 0 C3.26604763 0.59841491 5.17406707 1.6589078 7.6875 3.8125 C8.28949219 4.31394531 8.89148438 4.81539063 9.51171875 5.33203125 C11.18775622 7.21042495 11.6002351 8.54277844 12 11 C9.4476349 9.15173562 7.18220975 7.26949814 5 5 C4.113125 4.113125 3.22625 3.22625 2.3125 2.3125 C1.549375 1.549375 0.78625 0.78625 0 0 Z " fill="#000000" transform="translate(214,107)"/>
<path d="M0 0 C1 3 1 3 -0.3125 6.125 C-2 9 -2 9 -4 10 C-3.5205537 5.78087253 -2.83374881 3.20336822 0 0 Z " fill="#000000" transform="translate(92,112)"/>
</svg>
